<svg width="62" height="50" viewBox="0 0 62 50" fill="none" xmlns="http://www.w3.org/2000/svg">
<path d="M49.2292 29.9857C48.4727 34.7405 42.5292 39.8195 37.8825 39.9275C37.5583 39.9275 37.2341 40.0356 37.018 40.2517C36.8019 40.3598 36.5858 40.4678 36.4777 40.792C34.8568 43.8178 35.7213 46.1952 38.4228 48.1403C41.5567 50.4096 46.5276 48.1403 49.013 46.0871C55.2807 40.9001 61.6564 31.931 61.3322 23.3938C62.4129 17.6663 62.1967 11.5069 60.5758 6.42793C59.4952 3.18604 56.3613 1.56509 53.1194 1.34896C49.8775 1.13266 43.1776 0.160267 40.2599 2.10523C37.3422 4.05054 37.1261 7.83275 36.8019 11.0745C36.4777 14.6406 35.5051 21.3406 38.5309 24.1503C41.5567 26.8519 50.2017 23.9342 49.2292 29.9857Z" fill="#03C0B4"/>
<path d="M13.5685 29.9857C12.812 34.7405 6.86875 39.8195 2.22186 39.9275C1.89767 39.9275 1.57348 40.0356 1.35735 40.2517C1.14105 40.3598 0.925097 40.4678 0.816856 40.792C-0.80409 43.8178 0.0604134 46.1952 2.76199 48.1403C5.89583 50.4096 10.8667 48.1403 13.3524 46.0871C19.62 40.9001 25.9958 31.9308 25.6716 23.3938C26.7522 17.6663 26.5361 11.5069 24.9153 6.42793C23.8347 3.18604 20.7008 1.56509 17.4588 1.34896C14.2169 1.13266 7.51695 0.160267 4.59925 2.10523C1.68172 4.05054 1.46541 7.83275 1.14122 11.0745C0.817034 14.6406 -0.155537 21.3406 2.87023 24.1503C5.896 26.8519 14.6491 23.9342 13.5685 29.9857Z" fill="#03C0B4"/>
</svg>
