<svg width="28" height="23" viewBox="0 0 28 23" fill="none" xmlns="http://www.w3.org/2000/svg">
<path d="M0.35 11.75C0.35 8.31 1.01 5.6 2.33 3.62C3.67 1.64 5.82 0.649998 8.78 0.649998C11.74 0.649998 13.88 1.64 15.2 3.62C16.54 5.6 17.21 8.31 17.21 11.75C17.21 15.23 16.54 17.96 15.2 19.94C13.88 21.92 11.74 22.91 8.78 22.91C5.82 22.91 3.67 21.92 2.33 19.94C1.01 17.96 0.35 15.23 0.35 11.75ZM12.17 11.75C12.17 9.73 11.95 8.18 11.51 7.1C11.07 6 10.16 5.45 8.78 5.45C7.4 5.45 6.49 6 6.05 7.1C5.61 8.18 5.39 9.73 5.39 11.75C5.39 13.11 5.47 14.24 5.63 15.14C5.79 16.02 6.11 16.74 6.59 17.3C7.09 17.84 7.82 18.11 8.78 18.11C9.74 18.11 10.46 17.84 10.94 17.3C11.44 16.74 11.77 16.02 11.93 15.14C12.09 14.24 12.17 13.11 12.17 11.75ZM19.3803 5.87V1.1H27.6903V23H22.3503V5.87H19.3803Z" fill="#F17732"/>
</svg>
