<svg width="35" height="23" viewBox="0 0 35 23" fill="none" xmlns="http://www.w3.org/2000/svg">
<path d="M0.35 11.75C0.35 8.31 1.01 5.6 2.33 3.62C3.67 1.64 5.82 0.649998 8.78 0.649998C11.74 0.649998 13.88 1.64 15.2 3.62C16.54 5.6 17.21 8.31 17.21 11.75C17.21 15.23 16.54 17.96 15.2 19.94C13.88 21.92 11.74 22.91 8.78 22.91C5.82 22.91 3.67 21.92 2.33 19.94C1.01 17.96 0.35 15.23 0.35 11.75ZM12.17 11.75C12.17 9.73 11.95 8.18 11.51 7.1C11.07 6 10.16 5.45 8.78 5.45C7.4 5.45 6.49 6 6.05 7.1C5.61 8.18 5.39 9.73 5.39 11.75C5.39 13.11 5.47 14.24 5.63 15.14C5.79 16.02 6.11 16.74 6.59 17.3C7.09 17.84 7.82 18.11 8.78 18.11C9.74 18.11 10.46 17.84 10.94 17.3C11.44 16.74 11.77 16.02 11.93 15.14C12.09 14.24 12.17 13.11 12.17 11.75ZM19.7403 18.89C20.4203 18.35 20.7303 18.1 20.6703 18.14C22.6303 16.52 24.1703 15.19 25.2903 14.15C26.4303 13.11 27.3903 12.02 28.1703 10.88C28.9503 9.74 29.3403 8.63 29.3403 7.55C29.3403 6.73 29.1503 6.09 28.7703 5.63C28.3903 5.17 27.8203 4.94 27.0603 4.94C26.3003 4.94 25.7003 5.23 25.2603 5.81C24.8403 6.37 24.6303 7.17 24.6303 8.21H19.6803C19.7203 6.51 20.0803 5.09 20.7603 3.95C21.4603 2.81 22.3703 1.97 23.4903 1.43C24.6303 0.889999 25.8903 0.619998 27.2703 0.619998C29.6503 0.619998 31.4403 1.23 32.6403 2.45C33.8603 3.67 34.4703 5.26 34.4703 7.22C34.4703 9.36 33.7403 11.35 32.2803 13.19C30.8203 15.01 28.9603 16.79 26.7003 18.53H34.8003V22.7H19.7403V18.89Z" fill="#F17732"/>
</svg>
