<svg width="36" height="24" viewBox="0 0 36 24" fill="none" xmlns="http://www.w3.org/2000/svg">
<path d="M0.35 11.75C0.35 8.31 1.01 5.6 2.33 3.62C3.67 1.64 5.82 0.649998 8.78 0.649998C11.74 0.649998 13.88 1.64 15.2 3.62C16.54 5.6 17.21 8.31 17.21 11.75C17.21 15.23 16.54 17.96 15.2 19.94C13.88 21.92 11.74 22.91 8.78 22.91C5.82 22.91 3.67 21.92 2.33 19.94C1.01 17.96 0.35 15.23 0.35 11.75ZM12.17 11.75C12.17 9.73 11.95 8.18 11.51 7.1C11.07 6 10.16 5.45 8.78 5.45C7.4 5.45 6.49 6 6.05 7.1C5.61 8.18 5.39 9.73 5.39 11.75C5.39 13.11 5.47 14.24 5.63 15.14C5.79 16.02 6.11 16.74 6.59 17.3C7.09 17.84 7.82 18.11 8.78 18.11C9.74 18.11 10.46 17.84 10.94 17.3C11.44 16.74 11.77 16.02 11.93 15.14C12.09 14.24 12.17 13.11 12.17 11.75ZM20.1003 7.28C20.1803 5.14 20.8803 3.49 22.2003 2.33C23.5203 1.17 25.3103 0.589999 27.5703 0.589999C29.0703 0.589999 30.3503 0.849999 31.4103 1.37C32.4903 1.89 33.3003 2.6 33.8403 3.5C34.4003 4.4 34.6803 5.41 34.6803 6.53C34.6803 7.85 34.3503 8.93 33.6903 9.77C33.0303 10.59 32.2603 11.15 31.3803 11.45V11.57C32.5203 11.95 33.4203 12.58 34.0803 13.46C34.7403 14.34 35.0703 15.47 35.0703 16.85C35.0703 18.09 34.7803 19.19 34.2003 20.15C33.6403 21.09 32.8103 21.83 31.7103 22.37C30.6303 22.91 29.3403 23.18 27.8403 23.18C25.4403 23.18 23.5203 22.59 22.0803 21.41C20.6603 20.23 19.9103 18.45 19.8303 16.07H24.8103C24.8303 16.95 25.0803 17.65 25.5603 18.17C26.0403 18.67 26.7403 18.92 27.6603 18.92C28.4403 18.92 29.0403 18.7 29.4603 18.26C29.9003 17.8 30.1203 17.2 30.1203 16.46C30.1203 15.5 29.8103 14.81 29.1903 14.39C28.5903 13.95 27.6203 13.73 26.2803 13.73H25.3203V9.56H26.2803C27.3003 9.56 28.1203 9.39 28.7403 9.05C29.3803 8.69 29.7003 8.06 29.7003 7.16C29.7003 6.44 29.5003 5.88 29.1003 5.48C28.7003 5.08 28.1503 4.88 27.4503 4.88C26.6903 4.88 26.1203 5.11 25.7403 5.57C25.3803 6.03 25.1703 6.6 25.1103 7.28H20.1003Z" fill="#F17732"/>
</svg>
